<svg xmlns="http://www.w3.org/2000/svg" viewBox="0 466.9 2560.7 666.1" enable-background="new 0 466.9 2560.7 666.1"><path fill="#fff" d="M105.3 657.7c7.5 12.2 10.9 22.4 15.6 45.5 30.6-29.9 67.9-45.5 108.6-45.5 36.7 0 67.2 12.2 90.3 36.7 6.1 6.1 12.2 14.3 17.7 21.7 40.7-41.4 77.4-58.4 126.3-58.4 34.6 0 67.9 10.2 87.6 27.8 25.1 21.7 33.3 48.2 33.3 108.6v316.4h-112.8v-294c0-53-6.1-63.8-36.7-63.8-21.7 0-52.3 14.9-77.4 37.3v320h-110.6v-289.3c0-55.7-8.1-68.6-40.7-68.6-21.7 0-51.6 10.9-76.1 34v324.6h-113.4v-310.4c0-64.5-4.1-92.4-17-114.1l105.3-28.5zM1000.9 723.6c35.3 41.4 51.6 90.3 51.6 162.3 0 76.7-17.7 129-55.7 172.5-34 38-78.1 61.8-146.7 61.8-120.9 0-200.3-90.3-200.3-230.2s80.2-232.9 200.4-232.9c63.1-.7 112.7 21 150.7 66.5zm-209.1 64.5c-8.1 23.8-12.2 55-12.2 99.1 0 50.9 5.4 89.6 14.9 112 10.2 24.4 36.7 36.7 59.1 36.7 50.2 0 72-45.5 72-150.1 0-59.8-8.1-99.1-23.1-119.5-10.9-14.9-29.2-23.1-50.2-23.1-28.6-.6-51.7 17.1-60.5 44.9zM1427.4 665.2v80.1l-196.9 284.5h204.4l-27.8 80.8h-327.3v-72l209.1-291.3h-192.2v-81.5h330.7v-.6zM1624.3 543c0 40.1-31.9 72-72 72-38.7 0-71.3-31.9-71.3-72s33.3-72 73.3-72c38.7-.7 70 31.9 70 72zm-13.6 112v455.6h-116.8v-437.2l116.8-18.4zM1822.6 583v347c0 76.7.7 86.9 8.1 99.1 4.1 8.1 13.6 12.2 23.8 12.2 4.1 0 6.8 0 12.9-1.4l19.7 69.3c-19.7 7.5-44.1 12.2-69.3 12.2-49.6 0-89.6-23.1-103.2-60.4-8.8-22.4-10.9-36.7-10.9-99.8v-333.3c0-58.4-1.4-93.7-6.1-133.8l118.8-27.2c4.8 24.5 6.2 53 6.2 116.1zM2064.3 583v347c0 76.7.7 86.9 8.1 99.1 4.1 8.1 13.6 12.2 23.1 12.2 4.1 0 6.8 0 12.9-1.4l19.7 69.3c-19.7 7.5-44.1 12.2-69.3 12.2-49.6 0-89.6-23.1-103.9-60.4-8.8-22.4-10.2-36.7-10.2-99.8v-333.3c0-58.4-2-93.7-6.1-133.8l118.8-27.2c5.5 24.5 6.9 53 6.9 116.1zM2247.6 681.5c43.5-18.3 80.8-25.8 121.5-25.8 74.7 0 126.3 27.8 144 77.4 6.1 18.3 8.1 31.9 8.1 80.1l-2.7 149.4v8.1c0 47.5 8.1 65.9 42.1 91l-61.8 71.3c-27.2-11.5-51.6-31.2-62.5-54.3-8.8 8.8-18.3 17-27.2 23.8-21.7 15.6-53 24.4-89.6 24.4-99.1 0-152.8-50.2-152.8-139.2 0-104.6 72.7-153.5 213.9-153.5 8.8 0 16.3 0 26.5.7v-18.3c0-49.6-9.5-65.9-52.3-65.9-36.7 0-80.8 18.3-128.3 50.2l-51.6-82.8c23.8-14.9 40.8-23 72.7-36.6zm150.8 234.3c-80.8 0-108.6 14.9-108.6 67.9 0 34.6 21.7 58.4 51.6 58.4 21.7 0 43.5-11.5 61.1-30.6l2-95.7h-6.1z"/></svg>