<?xml version="1.0" encoding="utf-8"?>
<!-- Generator: Adobe Illustrator 20.1.0, SVG Export Plug-In . SVG Version: 6.00 Build 0)  -->
<svg version="1.1" id="Layer_1" xmlns="http://www.w3.org/2000/svg" xmlns:xlink="http://www.w3.org/1999/xlink" x="0px" y="0px"
	 viewBox="0 0 360 102.8" style="enable-background:new 0 0 360 102.8;" xml:space="preserve">
<style type="text/css">
	.st0{fill:#FFFFFF;}
</style>
<g>
	<path class="st0" d="M134.3,45.6c-6.6,0-10.7,4.9-10.7,13.4c0,7.8,3.6,13.8,10.6,13.8c6.7,0,11.1-5.4,11.1-14
		C145.3,49.7,140.4,45.6,134.3,45.6z"/>
	<path class="st0" d="M310.9,68.3c0,2.9,1.4,5.2,5.3,5.2c4.6,0,9.5-3.3,9.8-10.8c-2.1-0.3-4.4-0.6-6.5-0.6
		C314.9,62.1,310.9,63.4,310.9,68.3z"/>
	<path class="st0" d="M0.1,0v103h360V0H0.1z M105.1,82h-19V56.3c0-7.8-2.9-10.8-8-10.8c-6.2,0-9,4.4-9,10.7V72h6v10h-18V56.3
		c0-7.8-2.9-10.8-8-10.8c-6.2,0-9,4.4-9,10.7V72h9v10h-28V72h6V46h-6v-9h19v6.4c3-4.8,7.5-7.7,13.8-7.7c6.5,0,12.5,3.1,14.7,9.7
		c2.5-6,7.8-9.7,14.9-9.7c8.1,0,15.7,4.9,15.7,15.6V72h6V82z M133.8,82.6c-13.9,0-23.5-8.5-23.5-22.9c0-13.2,8-24.1,24.2-24.1
		c16.2,0,24.1,10.9,24.1,23.5C158.6,73.5,148.2,82.6,133.8,82.6z M206.4,82h-39.3l-1.3-7.2L190.6,46h-14.1l-2,7.2l-9.3-0.7l1.6-15.5
		h39.5l1,6.7l-25,28.3h14.6l2.1-7.1l10.2,1.1L206.4,82z M232.1,82h-13V65h13V82z M232.1,53h-13V37h13V53z M240.6,82L260,13h12.7
		l-19.5,69H240.6z M266.7,82l19.5-69h12.7l-19.5,69H266.7z M335.9,82.6c-6,0-9.3-3.5-9.9-9c-2.6,4.6-7.2,9-14.5,9
		c-6.5,0-13.9-3.5-13.9-12.9c0-11.1,10.7-13.7,21-13.7c2.5,0,5.4,0.1,7.4,0.4V55c0-4.6-0.1-10.1-7.4-10.1c-2.7,0-4.8,0.2-6.9,1.3
		l-1.5,5.1L300,50.2l1.8-10.4c7.9-3.2,12-4.1,19.4-4.1c9.7,0,18,5,18,15.3v19.6c0,2.6,0.9,3.5,3,3.5c0.6,0,1.1-0.1,1.8-0.3l0.1,6.8
		C341.6,81.8,338.7,82.6,335.9,82.6z"/>
</g>
</svg>
