<?xml version="1.0" encoding="utf-8"?>
<!-- Generator: Adobe Illustrator 18.1.0, SVG Export Plug-In . SVG Version: 6.00 Build 0)  -->
<!DOCTYPE svg PUBLIC "-//W3C//DTD SVG 1.1//EN" "http://www.w3.org/Graphics/SVG/1.1/DTD/svg11.dtd">
<svg version="1.1" id="Layer_1" xmlns="http://www.w3.org/2000/svg" xmlns:xlink="http://www.w3.org/1999/xlink" x="0px" y="0px"
	 viewBox="0 466.9 2560.7 666.1" enable-background="new 0 466.9 2560.7 666.1" xml:space="preserve">
<g>
	<g>
		<path fill="#FFFFFF" d="M105.3,657.7c7.5,12.2,10.9,22.4,15.6,45.5c30.6-29.9,67.9-45.5,108.6-45.5c36.7,0,67.2,12.2,90.3,36.7
			c6.1,6.1,12.2,14.3,17.7,21.7c40.7-41.4,77.4-58.4,126.3-58.4c34.6,0,67.9,10.2,87.6,27.8c25.1,21.7,33.3,48.2,33.3,108.6v316.4
			H471.9v-294c0-53-6.1-63.8-36.7-63.8c-21.7,0-52.3,14.9-77.4,37.3V1110H247.2V820.7c0-55.7-8.1-68.6-40.7-68.6
			c-21.7,0-51.6,10.9-76.1,34v324.6H17V800.3c0-64.5-4.1-92.4-17-114.1L105.3,657.7z"/>
	</g>
	<g>
		<path fill="#FFFFFF" d="M1000.9,723.6c35.3,41.4,51.6,90.3,51.6,162.3c0,76.7-17.7,129-55.7,172.5c-34,38-78.1,61.8-146.7,61.8
			c-120.9,0-200.3-90.3-200.3-230.2S730,657.1,850.2,657.1C913.3,656.4,962.9,678.1,1000.9,723.6z M791.8,788.1
			c-8.1,23.8-12.2,55-12.2,99.1c0,50.9,5.4,89.6,14.9,112c10.2,24.4,36.7,36.7,59.1,36.7c50.2,0,72-45.5,72-150.1
			c0-59.8-8.1-99.1-23.1-119.5c-10.9-14.9-29.2-23.1-50.2-23.1C823.7,742.6,800.6,760.3,791.8,788.1z"/>
	</g>
	<g>
		<path fill="#FFFFFF" d="M1427.4,665.2v80.1l-196.9,284.5h204.4l-27.8,80.8h-327.3v-72l209.1-291.3h-192.2v-81.5h330.7V665.2z"/>
	</g>
	<g>
		<path fill="#FFFFFF" d="M1624.3,543c0,40.1-31.9,72-72,72c-38.7,0-71.3-31.9-71.3-72s33.3-72,73.3-72
			C1593,470.3,1624.3,502.9,1624.3,543z M1610.7,655v455.6h-116.8V673.4L1610.7,655z"/>
	</g>
	<g>
		<path fill="#FFFFFF" d="M1822.6,583v347c0,76.7,0.7,86.9,8.1,99.1c4.1,8.1,13.6,12.2,23.8,12.2c4.1,0,6.8,0,12.9-1.4l19.7,69.3
			c-19.7,7.5-44.1,12.2-69.3,12.2c-49.6,0-89.6-23.1-103.2-60.4c-8.8-22.4-10.9-36.7-10.9-99.8V627.9c0-58.4-1.4-93.7-6.1-133.8
			l118.8-27.2C1821.2,491.4,1822.6,519.9,1822.6,583z"/>
	</g>
	<g>
		<path fill="#FFFFFF" d="M2064.3,583v347c0,76.7,0.7,86.9,8.1,99.1c4.1,8.1,13.6,12.2,23.1,12.2c4.1,0,6.8,0,12.9-1.4l19.7,69.3
			c-19.7,7.5-44.1,12.2-69.3,12.2c-49.6,0-89.6-23.1-103.9-60.4c-8.8-22.4-10.2-36.7-10.2-99.8V627.9c0-58.4-2-93.7-6.1-133.8
			l118.8-27.2C2062.9,491.4,2064.3,519.9,2064.3,583z"/>
	</g>
	<g>
		<path fill="#FFFFFF" d="M2247.6,681.5c43.5-18.3,80.8-25.8,121.5-25.8c74.7,0,126.3,27.8,144,77.4c6.1,18.3,8.1,31.9,8.1,80.1
			l-2.7,149.4c0,2.7,0,5.4,0,8.1c0,47.5,8.1,65.9,42.1,91l-61.8,71.3c-27.2-11.5-51.6-31.2-62.5-54.3c-8.8,8.8-18.3,17-27.2,23.8
			c-21.7,15.6-53,24.4-89.6,24.4c-99.1,0-152.8-50.2-152.8-139.2c0-104.6,72.7-153.5,213.9-153.5c8.8,0,16.3,0,26.5,0.7v-18.3
			c0-49.6-9.5-65.9-52.3-65.9c-36.7,0-80.8,18.3-128.3,50.2l-51.6-82.8C2198.7,703.2,2215.7,695.1,2247.6,681.5z M2398.4,915.8
			c-80.8,0-108.6,14.9-108.6,67.9c0,34.6,21.7,58.4,51.6,58.4c21.7,0,43.5-11.5,61.1-30.6l2-95.7H2398.4z"/>
	</g>
</g>
</svg>
